<?xml version="1.0" encoding="UTF-8"?>
<svg id="Layer_1" xmlns="http://www.w3.org/2000/svg" version="1.1" xmlns:xlink="http://www.w3.org/1999/xlink" viewBox="0 0 1000 1000">
  <!-- Generator: Adobe Illustrator 29.6.0, SVG Export Plug-In . SVG Version: 2.1.1 Build 207)  -->
  <defs>
    <style>
      .st0 {
        fill: url(#linear-gradient2);
      }

      .st1 {
        fill: url(#linear-gradient1);
      }

      .st2 {
        fill: url(#linear-gradient);
      }
    </style>
    <linearGradient id="linear-gradient" x1="433.79" y1="434.77" x2="1000" y2="434.77" gradientUnits="userSpaceOnUse">
      <stop offset="0" stop-color="#00e991"/>
      <stop offset="1" stop-color="#7b15ff"/>
    </linearGradient>
    <linearGradient id="linear-gradient1" x1="0" y1="500.26" x2="684.35" y2="500.26" xlink:href="#linear-gradient"/>
    <linearGradient id="linear-gradient2" x1="323.12" y1="231" x2="942.16" y2="231" xlink:href="#linear-gradient"/>
  </defs>
  <path class="st2" d="M1000,327.19v215.15h-471.3c3.7-14.87,5.68-30.44,5.68-46.47,0-6.42-.31-12.77-.94-19.03-4.86-49.54-28.61-93.55-63.94-124.71-9.2-8.14-19.19-15.4-29.84-21.64-1.92-1.14-3.88-2.23-5.86-3.3h566.21Z"/>
  <path class="st1" d="M683.57,476.84c-3.54-53-19.14-102.69-44.1-146.35-.63-1.11-1.27-2.21-1.92-3.3-4.59-7.89-9.52-15.56-14.75-23.02h-226.51c-39.78,0-72.14-31.74-73.16-71.29-.02-.62-.02-1.25-.02-1.89v-72.65C142.99,168.24,0,317.4,0,499.99s142.99,331.77,323.12,341.66c6.31.34,12.66.53,19.05.53,45,0,87.98-8.69,127.32-24.49,113.37-45.48,196.78-149.89,212.25-275.34,1.72-13.88,2.61-28.01,2.61-42.36,0-7.78-.25-15.49-.78-23.15ZM469.49,639.61c-33.79,29.86-78.18,47.96-126.81,47.96-6.6,0-13.13-.33-19.55-1-96.7-9.8-172.16-91.42-172.16-190.7,0-105.88,85.84-191.7,191.72-191.7,33,0,64.01,8.34,91.12,23.02,1.98,1.07,3.94,2.16,5.86,3.3,10.65,6.24,20.64,13.5,29.84,21.64,35.34,31.16,59.08,75.17,63.94,124.71.63,6.26.94,12.61.94,19.03,0,16.04-1.98,31.6-5.68,46.47-9.52,38.27-30.55,72-59.21,97.26Z"/>
  <path class="st0" d="M942.16,157.82v146.35H381.41c-32.19,0-58.29-32.76-58.29-73.18v-72.65c5.03-.34,10.09-.53,15.17-.53h603.87Z"/>
</svg>