<?xml version="1.0" encoding="UTF-8"?><svg id="Layer_1" xmlns="http://www.w3.org/2000/svg" xmlns:xlink="http://www.w3.org/1999/xlink" viewBox="0 0 1000 1000"><defs><linearGradient id="linear-gradient" x1="115.693" y1="426.865" x2="350.948" y2="674.054" gradientUnits="userSpaceOnUse"><stop offset="0" stop-color="#2ee6d6"/><stop offset=".347" stop-color="#2cadf0"/><stop offset=".545" stop-color="#2b8cff"/><stop offset="1" stop-color="#1f4ed8"/></linearGradient><linearGradient id="linear-gradient-2" x1="275.016" y1="475.315" x2="306.51" y2="702.213" gradientUnits="userSpaceOnUse"><stop offset="0" stop-color="#2ee6d6"/><stop offset=".559" stop-color="#2b8cff"/><stop offset="1" stop-color="#1f4ed8"/></linearGradient><linearGradient id="linear-gradient-3" x1="395.41" y1="483.966" x2="544.51" y2="700.653" gradientUnits="userSpaceOnUse"><stop offset="0" stop-color="#2ee6d6"/><stop offset=".344" stop-color="#2caeef"/><stop offset=".545" stop-color="#2b8cff"/><stop offset="1" stop-color="#1f4ed8"/></linearGradient><linearGradient id="linear-gradient-4" x1="665.203" y1="588.457" x2="964.167" y2="402.595" gradientUnits="userSpaceOnUse"><stop offset="0" stop-color="#2ee6d6"/><stop offset=".355" stop-color="#2caeef"/><stop offset=".418" stop-color="#2ca4f4"/><stop offset=".559" stop-color="#2b8cff"/><stop offset="1" stop-color="#1f4ed8"/></linearGradient><linearGradient id="linear-gradient-5" x1="730.557" y1="388.33" x2="456.689" y2="652.025" gradientUnits="userSpaceOnUse"><stop offset="0" stop-color="#2ee6d6"/><stop offset=".364" stop-color="#2caeef"/><stop offset=".575" stop-color="#2b8cff"/><stop offset=".725" stop-color="#2570ed"/><stop offset=".896" stop-color="#2057dd"/><stop offset="1" stop-color="#1f4ed8"/></linearGradient></defs><path d="M360.703,694.732h-157.123L21.982,335.57c-9.079-17.957,7.48-37.545,31.739-37.545h106.4l200.582,396.707Z" fill="url(#linear-gradient)"/><polygon points="395.842 623.785 395.629 624.211 360.582 694.411 360.559 694.458 360.417 694.731 205.253 694.731 282.485 540.052 291.223 522.564 317.781 469.379 330.497 494.527 361.399 555.657 395.842 623.785" fill="url(#linear-gradient-2)"/><path d="M510.069,548.113l-7.222,14.457-69.596,139.381-2.51.024-31.459-62.196-4.002-7.921-34.443-68.128-30.903-61.13-12.716-25.148-67.654-133.805c-9.081-17.961,7.471-37.545,31.731-37.545h106.407l40.481,80.051,57.993,114.718,23.893,47.242Z" fill="url(#linear-gradient-3)"/><path d="M971.702,306.907l-151.387,303.188-44.85,89.807-155.791,1.267,69.596-139.381,118.199-236.718c5.482-10.976,18.66-18.163,33.306-18.163h130.927Z" fill="url(#linear-gradient-4)"/><path d="M783.395,306.114l-127.423,255.201-69.608,139.381-1.835.012-153.956,1.255,69.596-139.381,7.222-14.457,111.77-223.848c5.482-10.976,18.66-18.163,33.306-18.163h130.927Z" fill="url(#linear-gradient-5)"/></svg>